<svg width="1em" height="1em" viewBox="0 0 15 15" fill="currentcolor" xmlns="http://www.w3.org/2000/svg"><g clip-path="url(#clip0_376_3067)"><path d="M5.50235 13.5563C5.50235 13.9138 5.79485 14.2063 6.15235 14.2063H8.75236C9.10986 14.2063 9.40236 13.9138 9.40236 13.5563V12.9063H5.50235V13.5563ZM7.45234 1.2063C4.94009 1.2063 2.90234 3.24404 2.90234 5.7563C2.90234 7.3033 3.67585 8.66505 4.85234 9.48731V10.9563C4.85234 11.3138 5.14485 11.6063 5.50235 11.6063H9.40234C9.75984 11.6063 10.0523 11.3138 10.0523 10.9563V9.48731C11.2289 8.66507 12.0023 7.30331 12.0023 5.7563C12.0023 3.24404 9.9646 1.2063 7.45234 1.2063ZM9.30808 8.4213L8.75234 8.80805V10.3063H6.15233V8.8113L5.59659 8.42454C4.72233 7.81354 4.20234 6.81904 4.20234 5.75954C4.20234 3.96879 5.66158 2.50953 7.45234 2.50953C9.24311 2.50953 10.7024 3.96878 10.7024 5.75954C10.7023 6.8158 10.1823 7.8103 9.30808 8.4213Z" fill="white" fill-opacity="0.7"></path></g><defs><clipPath id="clip0_376_3067"><rect width="14" height="14" fill="white" transform="translate(0.453125 0.706299)"></rect></clipPath></defs></svg>